<?xml version="1.0" standalone="no"?>
<!DOCTYPE svg PUBLIC "-//W3C//DTD SVG 20010904//EN" "http://www.w3.org/TR/2001/REC-SVG-20010904/DTD/svg10.dtd">
<svg version="1.0" xmlns="http://www.w3.org/2000/svg" width="1007.000000pt" height="1007.000000pt" viewBox="0 0 1007.000000 1007.000000" preserveAspectRatio="xMidYMid meet">
    <g transform="translate(0.000000,1007.000000) scale(0.100000,-0.100000)" fill="#000000" stroke="none">
        <path d="M4775 7154 c-485 -75 -913 -339 -1201 -739 -80 -112 -193 -336 -238 -475 -254 -771 44 -1620 726 -2064 47 -31 121 -74 164 -96 l78 -40 -75 0 c-409 0 -1040 -126 -1702 -339 -377 -122 -707 -191 -1030 -217 -63 -5 -87 -10 -87 -20 0 -10 -14 -14 -50 -14 l-50 0 0 -65 0 -65 273 0 c456 0 646 15 1177 90 628 90 968 120 1338 120 328 0 488 -20 614 -77 84 -37 108 -70 108 -144 0 -102 25 -112 247 -107 134 3 143 4 167 27 22 21 26 33 26 84 0 57 2 62 40 98 46 44 144 79 280 101 129 20 724 17 955 -5 244 -24 541 -61 819 -102 442 -65 703 -85 1144 -85 l272 0 0 65 0 65 -50 0 c-38 0 -50 4 -50 15 0 10 -10 15 -32 15 -61 0 -302 30 -448 56 -185 33 -398 88 -620 159 -693 222 -1300 344 -1719 345 l-76 0 108 58 c299 159 555 410 722 707 35 63 24 51 -51 -50 -72 -98 -253 -286 -354 -368 -228 -184 -484 -309 -761 -371 -382 -85 -784 -43 -1124 118 -720 341 -1111 1130 -944 1905 128 590 558 1068 1136 1261 182 61 322 82 543 82 361 1 674 -61 921 -182 79 -38 5 13 -91 64 -177 93 -383 160 -585 191 -125 19 -397 18 -520 -1z m-305 -3518 c312 -47 495 -193 516 -411 10 -94 10 -95 53 -95 l40 0 6 58 c36 317 279 462 775 462 454 0 909 -96 1840 -386 63 -20 178 -51 255 -70 l140 -34 -115 5 c-162 8 -337 28 -695 80 -310 45 -538 72 -800 97 -193 18 -780 18 -900 -1 -111 -17 -241 -53 -303 -85 -84 -43 -152 -133 -152 -201 0 -25 0 -25 -90 -25 -79 0 -90 2 -90 18 0 72 -62 158 -147 205 -62 33 -193 71 -308 88 -136 21 -727 18 -960 -4 -246 -24 -546 -61 -815 -102 -124 -19 -288 -41 -365 -49 -145 -16 -385 -29 -350 -20 11 3 90 23 175 44 85 21 247 68 360 104 555 176 997 279 1375 321 165 18 438 18 555 1z m676 -110 c-34 -34 -70 -80 -80 -103 -10 -24 -22 -43 -25 -43 -3 0 -17 21 -31 47 -14 26 -50 73 -81 104 l-55 55 166 0 166 0 -60 -60z" />
        <path d="M4810 6855 c-320 -53 -602 -198 -827 -425 -209 -211 -344 -462 -409 -760 -15 -68 -19 -127 -19 -290 0 -178 3 -219 23 -309 46 -205 132 -399 249 -564 74 -104 236 -266 340 -340 225 -160 497 -258 766 -275 269 -18 507 27 744 138 441 208 751 618 835 1105 26 154 21 409 -11 550 -68 303 -191 526 -410 746 -222 221 -449 345 -761 414 -105 23 -407 29 -520 10z m466 -90 c440 -76 820 -360 1024 -764 95 -189 142 -396 142 -621 0 -163 -21 -295 -69 -442 l-35 -108 -44 0 c-66 0 -234 27 -348 56 -199 51 -413 150 -586 272 -126 89 -317 280 -422 422 -86 117 -638 973 -638 990 0 16 218 119 318 150 53 16 133 36 177 44 110 20 369 20 481 1z m-806 -622 c135 -208 280 -427 323 -487 299 -419 617 -654 1055 -780 118 -34 357 -76 435 -76 l38 0 -17 -31 -16 -32 -132 6 c-465 21 -871 173 -1201 449 -110 91 -274 261 -376 388 -42 52 -170 228 -284 390 -115 162 -221 311 -237 331 -15 20 -28 41 -28 46 0 16 173 173 190 173 3 0 115 -170 250 -377z m-443 -80 c65 -82 175 -220 243 -308 224 -288 323 -409 400 -484 303 -297 700 -489 1146 -556 80 -11 364 -35 431 -35 18 0 -24 -68 -50 -82 -25 -13 -442 -5 -587 12 -431 50 -813 209 -1165 485 -101 80 -121 101 -360 385 -109 129 -234 274 -278 323 l-79 87 41 88 c39 79 128 232 136 232 2 0 57 -66 122 -147z m-139 -764 c177 -205 332 -337 541 -464 203 -122 418 -213 639 -270 237 -62 591 -88 895 -65 93 6 171 10 173 7 3 -3 -19 -31 -48 -62 l-53 -57 -200 -31 c-187 -28 -219 -30 -490 -31 -239 -1 -308 2 -390 17 -250 46 -435 106 -651 212 -238 116 -406 237 -540 387 -79 88 -100 131 -115 223 -14 94 -17 292 -5 387 l7 67 69 -102 c38 -56 114 -154 168 -218z m372 -1021 c394 -162 850 -200 1369 -112 79 13 146 22 148 20 2 -2 -22 -18 -54 -35 -496 -271 -1076 -230 -1529 107 -44 32 -86 66 -94 76 -13 17 -12 17 25 1 22 -10 83 -36 135 -57z" />
    </g>
</svg>